<svg id="Capa_1" data-name="Capa 1" xmlns="http://www.w3.org/2000/svg" viewBox="0 0 176.95 30.12"><defs><style>.cls-1{fill:#fff;}</style></defs><title>logo-sensawell-white</title><path class="cls-1" d="M9.88,28.51A12.35,12.35,0,0,0,18,31.46c3.73-.05,5.62-1.43,5.67-4.12q0-3.32-3.74-4l-3.8-.55A9.28,9.28,0,0,1,10.54,20a8,8,0,0,1-2-5.49,8.25,8.25,0,0,1,2.5-6.26,9.49,9.49,0,0,1,6.87-2.4,15.79,15.79,0,0,1,9.3,3.06l-2.43,3.69a12.78,12.78,0,0,0-7.11-2.28,5.3,5.3,0,0,0-3.34,1,3.93,3.93,0,0,0-1.44,3.22,3.36,3.36,0,0,0,1,2.32A5.53,5.53,0,0,0,17,18.32c.78.14,1.86.29,3.22.47a8.82,8.82,0,0,1,6,3,8.58,8.58,0,0,1,1.91,5.53q-.21,8.5-10.07,8.62a16,16,0,0,1-11-4Z" transform="translate(-7.03 -5.82)"/><path class="cls-1" d="M35.29,26.75a5,5,0,0,0,1.42,3.86A4.67,4.67,0,0,0,40.18,32a6,6,0,0,0,4.47-2.05l3,2.62a9.49,9.49,0,0,1-7.36,3.41,10.45,10.45,0,0,1-3.14-.48,7.64,7.64,0,0,1-1.5-.72,7,7,0,0,1-1.44-.95,8.49,8.49,0,0,1-2.1-3.29,13.4,13.4,0,0,1-.89-5.29A15.17,15.17,0,0,1,32,20a9,9,0,0,1,2-3.33,7.28,7.28,0,0,1,2.73-1.79,8.45,8.45,0,0,1,8.88,1.83A8.81,8.81,0,0,1,48,23.25v3.5Zm8.64-3.5a5.48,5.48,0,0,0-1.28-3.73,4.41,4.41,0,0,0-6.07,0,5.75,5.75,0,0,0-1.29,3.73Z" transform="translate(-7.03 -5.82)"/><path class="cls-1" d="M52.19,14.6h4.1v2.23h.08a6.52,6.52,0,0,1,5.31-2.5,6.88,6.88,0,0,1,4.64,1.85,7.3,7.3,0,0,1,2.18,5.49v14H64.4V23.11a4.61,4.61,0,0,0-1.14-3.37,4.17,4.17,0,0,0-5.81,0,4.54,4.54,0,0,0-1.16,3.37V35.69h-4.1Z" transform="translate(-7.03 -5.82)"/><path class="cls-1" d="M75.14,29.25A8.42,8.42,0,0,0,81.61,32a5.3,5.3,0,0,0,2.9-.71,2.24,2.24,0,0,0,1.13-2A1.77,1.77,0,0,0,85,27.66a3.39,3.39,0,0,0-1.83-.5l-3.63-.33A6.8,6.8,0,0,1,75.3,25a5.49,5.49,0,0,1-1.69-4.21A5.75,5.75,0,0,1,75.83,16a8.61,8.61,0,0,1,5.4-1.63,16.21,16.21,0,0,1,2.54.18,13.28,13.28,0,0,1,2.11.57,12,12,0,0,1,3.39,2.14l-2.55,3.06a12.32,12.32,0,0,0-2.5-1.45,8,8,0,0,0-3-.52,4,4,0,0,0-2.71.72,2.34,2.34,0,0,0-.8,1.83,1.43,1.43,0,0,0,.61,1.24,3.5,3.5,0,0,0,2.09.75l3.39.26a6.29,6.29,0,0,1,4.62,2,6.87,6.87,0,0,1,1.32,4.33,5.54,5.54,0,0,1-2.43,4.74,10.19,10.19,0,0,1-6,1.75,12.82,12.82,0,0,1-9-3.77Z" transform="translate(-7.03 -5.82)"/><path class="cls-1" d="M105.25,33.82h-.08a3.45,3.45,0,0,1-1.77,1.59,8.27,8.27,0,0,1-3.27.52,7.27,7.27,0,0,1-5.27-1.87,5.91,5.91,0,0,1-2-4.57,6.09,6.09,0,0,1,1.69-4.41,6.65,6.65,0,0,1,5-1.83h5.69V21c0-1.87-1.37-2.77-4.2-2.72a7.15,7.15,0,0,0-2.42.33A3,3,0,0,0,97.18,20L94,17.4a7.88,7.88,0,0,1,6.9-3.07,10.76,10.76,0,0,1,6.16,1.5q2.3,1.59,2.34,5.45V35.69h-4.1Zm0-7.07h-4.93q-3.6.08-3.55,2.54a2.29,2.29,0,0,0,.92,1.83,4.27,4.27,0,0,0,2.94.83,7,7,0,0,0,3.65-.63c.64-.44,1-1.46,1-3.05Z" transform="translate(-7.03 -5.82)"/><path class="cls-1" d="M127.25,20.91h-.08L122.9,35.69h-3.62L112.74,14.6h4.35L121,29.39h.08l4.64-14.79h3l4.64,14.79h.08l3.9-14.79h4.35l-6.52,21.09h-3.64Z" transform="translate(-7.03 -5.82)"/><path class="cls-1" d="M148.46,26.75a5,5,0,0,0,1.42,3.86A4.67,4.67,0,0,0,153.35,32a6,6,0,0,0,4.47-2.05l3,2.62a9.49,9.49,0,0,1-7.36,3.41,10.45,10.45,0,0,1-3.14-.48,7.64,7.64,0,0,1-1.5-.72,7,7,0,0,1-1.44-.95,8.49,8.49,0,0,1-2.1-3.29,13.4,13.4,0,0,1-.89-5.29,15.17,15.17,0,0,1,.77-5.2,9,9,0,0,1,2-3.33,7.28,7.28,0,0,1,2.73-1.79,8.45,8.45,0,0,1,8.88,1.83,8.81,8.81,0,0,1,2.5,6.54v3.5Zm8.65-3.5a5.54,5.54,0,0,0-1.29-3.73,4.41,4.41,0,0,0-6.07,0,5.75,5.75,0,0,0-1.29,3.73Z" transform="translate(-7.03 -5.82)"/><path class="cls-1" d="M166.19,6.06h4.1v24.2c0,1,.51,1.45,1.54,1.45h1.42v4h-1.83a5.84,5.84,0,0,1-3.7-1.15,4.69,4.69,0,0,1-1.53-3.95Z" transform="translate(-7.03 -5.82)"/><path class="cls-1" d="M176.92,6.06H181v24.2c0,1,.51,1.45,1.54,1.45H184v4h-1.83a5.84,5.84,0,0,1-3.7-1.15,4.69,4.69,0,0,1-1.53-3.95Z" transform="translate(-7.03 -5.82)"/></svg>