<svg width="162" height="160" viewBox="0 0 162 160" fill="none" xmlns="http://www.w3.org/2000/svg">
<circle cx="78.4733" cy="81.5267" r="78.4733" fill="#D6FF60" fill-opacity="0.5"/>
<circle cx="78.4733" cy="81.5267" r="64.4275" fill="#D6FF60"/>
<path d="M85.6406 44.1818L84.9588 94.3636H77.0497L76.3679 44.1818H85.6406ZM81.0043 114.545C79.3224 114.545 77.8793 113.943 76.6747 112.739C75.4702 111.534 74.8679 110.091 74.8679 108.409C74.8679 106.727 75.4702 105.284 76.6747 104.08C77.8793 102.875 79.3224 102.273 81.0043 102.273C82.6861 102.273 84.1293 102.875 85.3338 104.08C86.5383 105.284 87.1406 106.727 87.1406 108.409C87.1406 109.523 86.8565 110.545 86.2883 111.477C85.7429 112.409 85.0043 113.159 84.0724 113.727C83.1633 114.273 82.1406 114.545 81.0043 114.545Z" fill="#2D2E37"/>
</svg>
