<svg width="26" height="26" viewBox="0 0 26 26" fill="none" xmlns="http://www.w3.org/2000/svg">
<circle cx="13" cy="13" r="13" fill="#2D2E37"/>
<path fill-rule="evenodd" clip-rule="evenodd" d="M11.3862 6.11774C11.1408 6.11774 10.9226 6.27386 10.8434 6.50612L10.1324 8.5905L8.29457 8.14148C8.04561 8.08065 7.78651 8.19238 7.65985 8.41518L6.19269 10.9961C6.06389 11.2226 6.10404 11.5075 6.29042 11.6897L7.6313 13.0001L6.29042 14.3105C6.10404 14.4926 6.06389 14.7776 6.19269 15.0041L7.65985 17.585C7.78651 17.8078 8.04561 17.9195 8.29457 17.8587L10.0759 17.4235L10.5335 19.4361C10.5929 19.6972 10.825 19.8824 11.0928 19.8824H14.3205C14.5659 19.8824 14.7841 19.7263 14.8634 19.4941L15.5786 17.397L17.72 17.862C17.9544 17.9129 18.1957 17.8126 18.3249 17.6106L19.7921 15.3164C19.9385 15.0875 19.9041 14.7872 19.7098 14.5973L18.3378 13.2565L19.7401 11.6577C19.9012 11.474 19.9282 11.2084 19.8075 10.9961L18.3403 8.41518C18.2164 8.19713 17.9651 8.08493 17.72 8.13815L15.5786 8.6032L14.8634 6.50612C14.7841 6.27386 14.5659 6.11774 14.3205 6.11774H11.3862ZM13.0001 10.1324C11.4163 10.1324 10.1324 11.4163 10.1324 13.0001C10.1324 14.5838 11.4163 15.8677 13.0001 15.8677C14.5838 15.8677 15.8677 14.5838 15.8677 13.0001C15.8677 11.4163 14.5838 10.1324 13.0001 10.1324Z" fill="#D6FF60"/>
</svg>
