<svg width="83" height="14" viewBox="0 0 83 14" fill="none" xmlns="http://www.w3.org/2000/svg">
<g clip-path="url(#clip0_25_126)">
<path d="M1.32467 10.5465C2.37665 11.443 3.71678 11.9299 5.09891 11.9177C6.83264 11.8944 7.71113 11.253 7.73437 10.0027C7.73437 8.97388 7.15491 8.35414 5.99599 8.14343L4.22972 7.88778C3.23978 7.76881 2.32162 7.31055 1.63145 6.59097C1.01092 5.888 0.678884 4.97656 0.701831 4.03918C0.679761 3.4997 0.771863 2.96165 0.97211 2.46023C1.17236 1.95882 1.47623 1.50534 1.86385 1.12948C2.29654 0.74259 2.80133 0.444899 3.34929 0.253472C3.89725 0.0620454 4.4776 -0.0193529 5.05708 0.0139434C6.61228 0.0180783 8.12597 0.516131 9.37979 1.43625L8.2503 3.15139C7.27877 2.47704 6.12805 2.10804 4.94552 2.09163C4.39043 2.06706 3.84332 2.23086 3.39307 2.55644C3.1726 2.73651 2.99727 2.96561 2.88106 3.22547C2.76485 3.48533 2.71098 3.76875 2.72374 4.05312C2.7325 4.45935 2.89924 4.84617 3.18855 5.13147C3.58613 5.50542 4.09242 5.7431 4.6341 5.81009C4.99665 5.87516 5.49864 5.94489 6.13078 6.02855C7.20777 6.1079 8.20995 6.60899 8.91963 7.42297C9.50755 8.1493 9.82176 9.05901 9.80741 9.99336C9.74234 12.6273 8.18213 13.9628 5.1268 14C3.24885 14.0483 1.42222 13.384 0.013916 12.1408L1.32467 10.5465Z" fill="#231F20"/>
<path d="M13.1354 9.72842C13.1119 10.0572 13.1586 10.3872 13.2724 10.6965C13.3862 11.0058 13.5645 11.2874 13.7954 11.5226C14.0053 11.7355 14.2569 11.9029 14.5344 12.014C14.812 12.1252 15.1095 12.1779 15.4083 12.1687C15.8023 12.1656 16.1912 12.0791 16.5493 11.9149C16.9074 11.7506 17.2267 11.5124 17.486 11.2158L18.8804 12.4336C18.4628 12.9342 17.9394 13.336 17.3478 13.61C16.7563 13.8841 16.1114 14.0236 15.4595 14.0186C14.9644 14.019 14.4722 13.9438 14 13.7955C13.7561 13.7096 13.5223 13.5974 13.3027 13.4608C13.0623 13.3418 12.8375 13.1935 12.6334 13.0193C12.1937 12.5922 11.8595 12.0687 11.6573 11.49C11.3551 10.7067 11.2144 9.87032 11.2436 9.03121C11.2202 8.20281 11.3429 7.37676 11.6062 6.59097C11.7997 6.01352 12.117 5.48528 12.5358 5.04316C12.8904 4.67334 13.3242 4.38886 13.8047 4.21116C14.5024 3.94612 15.2612 3.88536 15.9922 4.03601C16.7232 4.18665 17.3962 4.54246 17.9322 5.06175C18.3142 5.46638 18.6097 5.94462 18.8007 6.46727C18.9917 6.98992 19.0742 7.54601 19.0431 8.10159V9.72842H13.1354ZM17.1514 8.10159C17.175 7.46988 16.963 6.85192 16.5564 6.36786C16.1756 6.0066 15.6706 5.80522 15.1457 5.80522C14.6208 5.80522 14.1159 6.0066 13.735 6.36786C13.3369 6.85693 13.1245 7.47104 13.1354 8.10159H17.1514Z" fill="#231F20"/>
<path d="M20.9907 4.08101H22.8964V5.11753H22.9336C23.2256 4.7444 23.6009 4.44491 24.0295 4.24311C24.4582 4.0413 24.9282 3.9428 25.4017 3.95551C26.203 3.96183 26.9727 4.2687 27.5585 4.81541C27.8958 5.14667 28.1602 5.54479 28.3347 5.98423C28.5092 6.42367 28.5899 6.89473 28.5717 7.3672V13.8745H26.666V8.03652C26.6859 7.75334 26.6492 7.46905 26.5583 7.20015C26.4673 6.93125 26.3238 6.6831 26.1361 6.47012C25.7744 6.11888 25.2901 5.92241 24.7859 5.92241C24.2817 5.92241 23.7973 6.11888 23.4356 6.47012C23.2447 6.68134 23.0985 6.929 23.0059 7.1982C22.9132 7.4674 22.876 7.75256 22.8964 8.03652V13.8838H20.9907V4.08101Z" fill="#231F20"/>
<path d="M31.6581 10.8904C32.0376 11.3076 32.5029 11.6378 33.0219 11.8584C33.541 12.079 34.1016 12.1849 34.6654 12.1687C35.137 12.1901 35.6049 12.0755 36.0133 11.8386C36.1766 11.7455 36.3117 11.61 36.4042 11.4463C36.4966 11.2826 36.5431 11.097 36.5385 10.909C36.5589 10.7678 36.5422 10.6237 36.4901 10.4908C36.4379 10.358 36.3521 10.241 36.2411 10.1514C35.9854 9.99456 35.6903 9.91393 35.3905 9.91899L33.7032 9.7656C32.9672 9.72065 32.27 9.41976 31.7324 8.91501C31.4696 8.66364 31.2636 8.35901 31.1281 8.02152C30.9926 7.68403 30.9308 7.32148 30.9469 6.95817C30.9286 6.53162 31.0127 6.10689 31.1922 5.71953C31.3717 5.33217 31.6415 4.99345 31.9788 4.73174C32.7066 4.20453 33.5907 3.93765 34.4887 3.9741C34.8839 3.97099 35.2786 3.99897 35.6693 4.05777C36.003 4.11899 36.331 4.2076 36.6501 4.32271C37.2274 4.56357 37.76 4.89983 38.2258 5.3174L37.0405 6.73971C36.681 6.47024 36.2909 6.24403 35.8785 6.06574C35.4335 5.89665 34.9601 5.8146 34.4841 5.82404C34.0376 5.77995 33.5902 5.89881 33.2245 6.1587C33.1036 6.26426 33.0075 6.39527 32.9432 6.54233C32.8789 6.6894 32.848 6.84886 32.8526 7.0093C32.8473 7.1215 32.8706 7.23321 32.9201 7.334C32.9697 7.43479 33.044 7.52137 33.1361 7.58566C33.4135 7.80422 33.7545 7.92658 34.1076 7.93426L35.6833 8.05511C36.086 8.05383 36.4845 8.13575 36.8541 8.29571C37.2236 8.45568 37.5561 8.69025 37.8307 8.98473C38.2567 9.56702 38.473 10.2764 38.4442 10.9973C38.4563 11.4299 38.3591 11.8585 38.1617 12.2436C37.9643 12.6287 37.673 12.9578 37.3148 13.2005C36.4933 13.7571 35.5178 14.0416 34.5259 14.0139C32.955 14.0041 31.4516 13.3743 30.3427 12.2616L31.6581 10.8904Z" fill="#231F20"/>
<path d="M45.6534 13.0146H45.6162C45.4383 13.3507 45.1467 13.6127 44.7935 13.7537C44.3083 13.9359 43.7913 14.0181 43.2736 13.9954C42.8281 14.0193 42.3823 13.9549 41.9619 13.8057C41.5415 13.6565 41.1547 13.4256 40.824 13.1262C40.5236 12.8613 40.2847 12.5339 40.1241 12.167C39.9635 11.8 39.8851 11.4024 39.8944 11.002C39.8823 10.6252 39.9455 10.2498 40.0804 9.89785C40.2153 9.54585 40.4191 9.22434 40.6799 8.95219C40.9878 8.65796 41.3532 8.43052 41.7531 8.28415C42.153 8.13777 42.5789 8.07562 43.004 8.10159H45.6487V7.05578C45.6487 6.18659 45.0119 5.76826 43.6965 5.7915C43.3156 5.77774 42.9351 5.82962 42.5717 5.94489C42.2812 6.07728 42.045 6.30534 41.9024 6.59097L40.4243 5.38247C40.7967 4.89512 41.2854 4.50907 41.8458 4.25975C42.4062 4.01043 43.0202 3.90582 43.6315 3.95551C44.6342 3.89508 45.632 4.13803 46.4947 4.65272C47.2074 5.14542 47.5699 5.98982 47.5823 7.18592V13.8838H45.6766L45.6534 13.0146ZM45.6534 9.72842H43.3619C42.2463 9.75321 41.6963 10.1467 41.7118 10.909C41.7122 11.0743 41.751 11.2372 41.8252 11.3848C41.8994 11.5324 42.007 11.6608 42.1394 11.7596C42.5318 12.0523 43.0185 12.1897 43.506 12.1454C44.0875 12.2019 44.6736 12.1008 45.2025 11.8526C45.5 11.6481 45.6673 11.174 45.6673 10.4349L45.6534 9.72842Z" fill="#231F20"/>
<path d="M55.8791 7.01394H55.8419L53.8572 13.8838H52.1746L49.1348 4.08101H51.1567L52.9741 10.9555H53.0113L55.168 4.08101H56.5624L58.7191 10.9555H58.7563L60.569 4.08101H62.5909L59.5604 13.8838H57.8685L55.8791 7.01394Z" fill="#231F20"/>
<path d="M65.7377 9.72842C65.7142 10.0572 65.7609 10.3872 65.8747 10.6965C65.9885 11.0058 66.1668 11.2874 66.3977 11.5226C66.6076 11.7355 66.8592 11.9029 67.1367 12.014C67.4143 12.1252 67.7118 12.1779 68.0106 12.1687C68.4046 12.1656 68.7934 12.0791 69.1516 11.9149C69.5097 11.7506 69.8289 11.5124 70.0883 11.2158L71.4827 12.4336C71.0651 12.9342 70.5416 13.336 69.9501 13.61C69.3586 13.8841 68.7137 14.0236 68.0618 14.0186C67.5667 14.019 67.0745 13.9438 66.6023 13.7955C66.3584 13.7096 66.1246 13.5974 65.905 13.4608C65.6646 13.3418 65.4398 13.1935 65.2357 13.0193C64.796 12.5922 64.4618 12.0687 64.2596 11.49C63.9574 10.7067 63.8167 9.87032 63.8459 9.03121C63.8237 8.21085 63.9448 7.39291 64.2038 6.61421C64.3974 6.03676 64.7146 5.50852 65.1335 5.0664C65.488 4.69658 65.9219 4.4121 66.4024 4.2344C67.1001 3.96936 67.8589 3.9086 68.5899 4.05925C69.3209 4.20989 69.9938 4.5657 70.5299 5.08499C70.921 5.48537 71.226 5.96168 71.4258 6.48452C71.6257 7.00736 71.7162 7.56562 71.6919 8.12483V9.75166L65.7377 9.72842ZM69.7583 8.10159C69.778 7.46967 69.5646 6.85257 69.1587 6.36786C68.7779 6.0066 68.2729 5.80522 67.748 5.80522C67.2231 5.80522 66.7182 6.0066 66.3373 6.36786C65.9392 6.85693 65.7268 7.47104 65.7377 8.10159H69.7583Z" fill="#231F20"/>
<path d="M73.9787 0.111553H75.8844V11.3599C75.8844 11.8247 76.1215 12.0339 76.6002 12.0339H77.2602V13.8931H76.4096C75.7922 13.9158 75.1856 13.7273 74.6898 13.3586C74.4356 13.1298 74.2387 12.8444 74.1152 12.5254C73.9916 12.2065 73.9449 11.8629 73.9787 11.5226V0.111553Z" fill="#231F20"/>
<path d="M78.9661 0.111553H80.8625V11.3599C80.8625 11.8247 81.0996 12.0339 81.5783 12.0339H82.2569V13.8931H81.4063C80.789 13.9158 80.1823 13.7273 79.6866 13.3586C79.4323 13.1298 79.2354 12.8444 79.1119 12.5254C78.9883 12.2065 78.9416 11.8629 78.9754 11.5226L78.9661 0.111553Z" fill="#231F20"/>
</g>
<defs>
<clipPath id="clip0_25_126">
<rect width="82.2477" height="14" fill="white"/>
</clipPath>
</defs>
</svg>
