<svg width="59" height="71" viewBox="0 0 59 71" fill="none" xmlns="http://www.w3.org/2000/svg">
<path d="M58.9964 37.7415C58.1658 25.6879 58.5931 29.2113 57.0032 20.2312C54.7237 7.33858 46.5268 13.394 37.6811 2.71091C37.4626 2.45146 37.2405 2.16706 37.0353 1.89431C35.9622 0.453204 33.4769 0 29.4982 0C25.5231 0 23.0378 0.453204 21.9619 1.89431C21.7603 2.16706 21.5375 2.45063 21.3189 2.71091C12.4733 13.394 4.27628 7.33858 1.99683 20.2312C0.406929 29.2113 0.834194 25.6879 0.00363751 37.7415C-0.225506 41.0511 10.4462 43.8244 10.8495 41.2282L11.1675 39.1826C11.2768 38.4832 11.5503 38.4508 11.7724 39.1136C15.1052 50.9676 12.5995 49.5406 12.9478 68.6982C12.9513 69.0067 13.136 69.3834 13.3546 69.5547C14.3494 70.8146 21.199 71 29.4982 71C38.2861 70.8628 44.6506 70.8146 45.6419 69.5547C45.864 69.3834 46.0452 69.0059 46.0523 68.6982C46.3977 49.5406 43.892 50.9684 47.2283 39.1136C47.4504 38.4508 47.7239 38.4824 47.8297 39.1826L48.1512 41.2282C48.5538 43.8252 59.2248 41.052 58.9964 37.7415ZM29.6893 68.0962H29.31V13.4248H29.6893V68.0962ZM29.9735 11.0682C29.9735 11.227 29.8642 11.3609 29.7274 11.3609H29.2726C29.1358 11.3609 29.0266 11.2278 29.0266 11.0682V8.32481C29.0266 8.03626 29.2247 7.80093 29.4672 7.80093H29.5286C29.7746 7.80093 29.9728 8.03709 29.9728 8.32481L29.9735 11.0682ZM29.4982 5.62139C25.6254 5.62139 22.4844 4.57112 22.4844 3.2772C22.4844 1.98079 25.6254 0.930523 29.4982 0.930523C33.3746 0.930523 36.5157 1.98079 36.5157 3.2772C36.515 4.57195 33.3739 5.62139 29.4982 5.62139Z" fill="#7ACCFF" fill-opacity="0.85"/>
</svg>
